<?xml version="1.0" encoding="utf-8"?>
<!-- Generator: Adobe Illustrator 16.2.0, SVG Export Plug-In . SVG Version: 6.00 Build 0)  -->
<!DOCTYPE svg PUBLIC "-//W3C//DTD SVG 1.1//EN" "http://www.w3.org/Graphics/SVG/1.1/DTD/svg11.dtd">
<svg version="1.1" id="Слой_1" xmlns="http://www.w3.org/2000/svg" xmlns:xlink="http://www.w3.org/1999/xlink" x="0px" y="0px"
	 width="24px" height="24px" viewBox="0 0 24 24" enable-background="new 0 0 24 24" xml:space="preserve">
<path fill="none" stroke="#fff" stroke-width="2" stroke-miterlimit="10" d="M2.8676758,4.9047852
	C2.390625,2.7573242,2.8999023,1,4,1s2.3530273,1.7651367,2.784668,3.9223633l1.4306641,7.1552734
	c0.4316406,2.1577148,2.5639648,3.6489258,4.7382813,3.3139648l5.0932617-0.7832031C20.2207031,14.2734375,22,15.125,22,16.5
	S20.2001953,19,18,19h-8c-2.2001953,0-4.390625-1.7568359-4.8676758-3.9042969L2.8676758,4.9047852z"/>
<line fill="none" stroke="#fff" stroke-width="2" stroke-linecap="round" stroke-miterlimit="10" x1="21" y1="23" x2="19" y2="19"/>
<line fill="none" stroke="#fff" stroke-width="2" stroke-linecap="round" stroke-miterlimit="10" x1="9" y1="19" x2="7" y2="23"/>
<path fill="none" stroke="#fff" stroke-width="2" stroke-linecap="round" stroke-miterlimit="10" d="M8.7875977,13.484375
	C8.7875977,13.484375,10,11,13,11s3,1,3,1"/>
</svg>
